# xmcd
#
# Track frame offsets:
#	150
#	2065
#	18612
#	38110
#	58110
#	60682
#	79992
#	98437
#	99385
#	116472
#	137087
#	156727
#	176615
#	186445
#	186970
#
# Disc length: 2752 seconds
#
# Revision: 0
# Processed by: cddbd v1.4PL0 Copyright (c) Steve Scherf et al.
# Submitted via: EasyCDDAExtractor 4.5.0.2
#
DISCID=cc0abe0f
DTITLE=7 Dayz - Seven Dayz
DYEAR=2002
DGENRE=pop
TTITLE0=Story #1 (Everyday)
TTITLE1=Wait 4 U
TTITLE2=내가 그댈
TTITLE3=니의 그녀
TTITLE4=Story #2 (My one and only love)
TTITLE5=그뿐이죠
TTITLE6=다시
TTITLE7=Story #3 (I just wanna sing! sing! sing!)
TTITLE8=For your love
TTITLE9=Deel in my heart
TTITLE10=그대가
TTITLE11=나의 사랑이란
TTITLE12=Story #4 (당신이 있기에)
TTITLE13=Story #5 (A-men)
TTITLE14=내가 그댈 (Instrumental)
EXTD=
EXTT0=
EXTT1=
EXTT2=
EXTT3=
EXTT4=
EXTT5=
EXTT6=
EXTT7=
EXTT8=
EXTT9=
EXTT10=
EXTT11=
EXTT12=
EXTT13=
EXTT14=
PLAYORDER=
